{
    "asset" : {
        "generator" : "Khronos glTF Blender I/O v3.4.50",
        "version" : "2.0"
    },
    "extensionsUsed" : [
        "KHR_materials_specular",
        "KHR_materials_ior"
    ],
    "scene" : 0,
    "scenes" : [
        {
            "name" : "Scene",
            "nodes" : [
                0,
                3
            ]
        }
    ],
    "nodes" : [
        {
            "camera" : 0,
            "name" : "Camera",
            "rotation" : [
                0.004229892510920763,
                -0.9694360494613647,
                -0.24530532956123352,
                0.0010703285224735737
            ],
            "translation" : [
                0,
                21.454288482666016,
                -35.56999969482422
            ]
        },
        {
            "mesh" : 0,
            "name" : "flying.001",
            "rotation" : [
                0,
                0,
                0.05333627387881279,
                0.9985765814781189
            ],
            "translation" : [
                -0.26271486282348633,
                -0.8171932697296143,
                0.4273490905761719
            ]
        },
        {
            "mesh" : 1,
            "name" : "flying.002",
            "rotation" : [
                0,
                0,
                0.011183444410562515,
                0.9999374747276306
            ],
            "translation" : [
                0.5406659841537476,
                -0.866500973701477,
                0.4602513313293457
            ]
        },
        {
            "children" : [
                1,
                2
            ],
            "mesh" : 2,
            "name" : "flying",
            "translation" : [
                -0.024805428460240364,
                0.7781001329421997,
                -0.4602513313293457
            ]
        }
    ],
    "cameras" : [
        {
            "name" : "Camera",
            "perspective" : {
                "aspectRatio" : 1.7777777777777777,
                "yfov" : 0.39959652046304894,
                "zfar" : 100,
                "znear" : 0.10000000149011612
            },
            "type" : "perspective"
        }
    ],
    "materials" : [
        {
            "doubleSided" : true,
            "name" : "Material.002",
            "pbrMetallicRoughness" : {
                "baseColorTexture" : {
                    "index" : 0
                },
                "metallicFactor" : 0,
                "roughnessFactor" : 0.9770642518997192
            }
        },
        {
            "doubleSided" : true,
            "name" : "Material.003",
            "pbrMetallicRoughness" : {
                "baseColorTexture" : {
                    "index" : 1
                },
                "metallicFactor" : 0
            }
        },
        {
            "doubleSided" : true,
            "extensions" : {
                "KHR_materials_specular" : {
                    "specularColorFactor" : [
                        1.6425457758919155,
                        1.6425457758919155,
                        1.6425457758919155
                    ]
                },
                "KHR_materials_ior" : {
                    "ior" : 1.4500000476837158
                }
            },
            "name" : "Material.001",
            "pbrMetallicRoughness" : {
                "baseColorTexture" : {
                    "index" : 2
                },
                "metallicFactor" : 0.9908257126808167,
                "roughnessFactor" : 0.8669724464416504
            }
        }
    ],
    "meshes" : [
        {
            "name" : "flying.001",
            "primitives" : [
                {
                    "attributes" : {
                        "POSITION" : 0,
                        "TEXCOORD_0" : 1,
                        "NORMAL" : 2
                    },
                    "indices" : 3,
                    "material" : 0
                }
            ]
        },
        {
            "name" : "flying.002",
            "primitives" : [
                {
                    "attributes" : {
                        "POSITION" : 4,
                        "TEXCOORD_0" : 5,
                        "NORMAL" : 6
                    },
                    "indices" : 7,
                    "material" : 1
                }
            ]
        },
        {
            "name" : "flying",
            "primitives" : [
                {
                    "attributes" : {
                        "POSITION" : 8,
                        "TEXCOORD_0" : 9,
                        "NORMAL" : 10
                    },
                    "indices" : 11,
                    "material" : 2
                }
            ]
        }
    ],
    "textures" : [
        {
            "sampler" : 0,
            "source" : 0
        },
        {
            "sampler" : 0,
            "source" : 0
        },
        {
            "sampler" : 0,
            "source" : 0
        }
    ],
    "images" : [
        {
            "bufferView" : 4,
            "mimeType" : "image/jpeg",
            "name" : "pigeon-texture"
        }
    ],
    "accessors" : [
        {
            "bufferView" : 0,
            "componentType" : 5126,
            "count" : 1340,
            "max" : [
                5.930145263671875,
                1.8127772808074951,
                2.7294235229492188
            ],
            "min" : [
                0.015337872318923473,
                1.2040191888809204,
                -0.17744487524032593
            ],
            "type" : "VEC3"
        },
        {
            "bufferView" : 1,
            "componentType" : 5126,
            "count" : 1340,
            "type" : "VEC2"
        },
        {
            "bufferView" : 2,
            "componentType" : 5126,
            "count" : 1340,
            "type" : "VEC3"
        },
        {
            "bufferView" : 3,
            "componentType" : 5123,
            "count" : 1350,
            "type" : "SCALAR"
        },
        {
            "bufferView" : 5,
            "componentType" : 5126,
            "count" : 1320,
            "max" : [
                -0.01420449186116457,
                2.3439149856567383,
                2.729423999786377
            ],
            "min" : [
                -5.889892578125,
                1.3367998600006104,
                -0.17744511365890503
            ],
            "type" : "VEC3"
        },
        {
            "bufferView" : 6,
            "componentType" : 5126,
            "count" : 1320,
            "type" : "VEC2"
        },
        {
            "bufferView" : 7,
            "componentType" : 5126,
            "count" : 1320,
            "type" : "VEC3"
        },
        {
            "bufferView" : 8,
            "componentType" : 5123,
            "count" : 1320,
            "type" : "SCALAR"
        },
        {
            "bufferView" : 9,
            "componentType" : 5126,
            "count" : 3318,
            "max" : [
                2.0111887454986572,
                1.0779502391815186,
                4.331375598907471
            ],
            "min" : [
                -1.4034502506256104,
                -1.0471575260162354,
                -1.6515802145004272
            ],
            "type" : "VEC3"
        },
        {
            "bufferView" : 10,
            "componentType" : 5126,
            "count" : 3318,
            "type" : "VEC2"
        },
        {
            "bufferView" : 11,
            "componentType" : 5126,
            "count" : 3318,
            "type" : "VEC3"
        },
        {
            "bufferView" : 12,
            "componentType" : 5123,
            "count" : 3318,
            "type" : "SCALAR"
        }
    ],
    "bufferViews" : [
        {
            "buffer" : 0,
            "byteLength" : 16080,
            "byteOffset" : 0,
            "target" : 34962
        },
        {
            "buffer" : 0,
            "byteLength" : 10720,
            "byteOffset" : 16080,
            "target" : 34962
        },
        {
            "buffer" : 0,
            "byteLength" : 16080,
            "byteOffset" : 26800,
            "target" : 34962
        },
        {
            "buffer" : 0,
            "byteLength" : 2700,
            "byteOffset" : 42880,
            "target" : 34963
        },
        {
            "buffer" : 0,
            "byteLength" : 47613,
            "byteOffset" : 45580
        },
        {
            "buffer" : 0,
            "byteLength" : 15840,
            "byteOffset" : 93196,
            "target" : 34962
        },
        {
            "buffer" : 0,
            "byteLength" : 10560,
            "byteOffset" : 109036,
            "target" : 34962
        },
        {
            "buffer" : 0,
            "byteLength" : 15840,
            "byteOffset" : 119596,
            "target" : 34962
        },
        {
            "buffer" : 0,
            "byteLength" : 2640,
            "byteOffset" : 135436,
            "target" : 34963
        },
        {
            "buffer" : 0,
            "byteLength" : 39816,
            "byteOffset" : 138076,
            "target" : 34962
        },
        {
            "buffer" : 0,
            "byteLength" : 26544,
            "byteOffset" : 177892,
            "target" : 34962
        },
        {
            "buffer" : 0,
            "byteLength" : 39816,
            "byteOffset" : 204436,
            "target" : 34962
        },
        {
            "buffer" : 0,
            "byteLength" : 6636,
            "byteOffset" : 244252,
            "target" : 34963
        }
    ],
    "samplers" : [
        {
            "magFilter" : 9729,
            "minFilter" : 9987
        }
    ],
    "buffers" : [
        {
            "byteLength" : 250888,
            "uri" : "data:application/octet-stream;base64,"
        }
    ]
}
